<svg width="70" height="70" viewBox="0 0 70 70" fill="none" xmlns="http://www.w3.org/2000/svg">
<path d="M39.375 24.0625C39.375 22.8544 38.3956 21.875 37.1875 21.875C35.9794 21.875 35 22.8544 35 24.0625V30.625H28.4375C27.2294 30.625 26.25 31.6044 26.25 32.8125C26.25 34.0206 27.2294 35 28.4375 35H35V41.5625C35 42.7706 35.9794 43.75 37.1875 43.75C38.3956 43.75 39.375 42.7706 39.375 41.5625V35H45.9375C47.1456 35 48.125 34.0206 48.125 32.8125C48.125 31.6044 47.1456 30.625 45.9375 30.625H39.375V24.0625Z" fill="black"/>
<path d="M2.1875 4.375C0.979377 4.375 0 5.35438 0 6.5625C0 7.77062 0.979377 8.75 2.1875 8.75H7.04205L8.79949 15.7798L15.35 50.7156C15.544 51.7503 16.4473 52.5 17.5 52.5H21.875C17.0425 52.5 13.125 56.4175 13.125 61.25C13.125 66.0825 17.0425 70 21.875 70C26.7075 70 30.625 66.0825 30.625 61.25C30.625 56.4175 26.7075 52.5 21.875 52.5H52.5C47.6675 52.5 43.75 56.4175 43.75 61.25C43.75 66.0825 47.6675 70 52.5 70C57.3325 70 61.25 66.0825 61.25 61.25C61.25 56.4175 57.3325 52.5 52.5 52.5H56.875C57.9277 52.5 58.831 51.7503 59.025 50.7156L65.5875 15.7156C65.7075 15.076 65.5364 14.4162 65.1208 13.9155C64.7052 13.4147 64.0882 13.125 63.4375 13.125H12.6454L10.8722 6.03195C10.6287 5.05815 9.75377 4.375 8.75 4.375H2.1875ZM19.3155 48.125L13.5733 17.5H60.8017L55.0595 48.125H19.3155ZM26.25 61.25C26.25 63.6662 24.2912 65.625 21.875 65.625C19.4588 65.625 17.5 63.6662 17.5 61.25C17.5 58.8338 19.4588 56.875 21.875 56.875C24.2912 56.875 26.25 58.8338 26.25 61.25ZM56.875 61.25C56.875 63.6662 54.9162 65.625 52.5 65.625C50.0838 65.625 48.125 63.6662 48.125 61.25C48.125 58.8338 50.0838 56.875 52.5 56.875C54.9162 56.875 56.875 58.8338 56.875 61.25Z" fill="black"/>
</svg>
