<svg width="116" height="87" viewBox="0 0 116 87" fill="none" xmlns="http://www.w3.org/2000/svg">
<path d="M86.5807 58.0339L85.81 61.0389H30.9646L22.4874 30.4662H58.1947C58.0662 29.2904 58.0662 28.2451 58.0662 27.0693C58.0662 26.2854 58.0662 25.5014 58.1947 24.7175H21.2029H20.946L17.4781 12.1749C16.7074 8.90859 14.3954 6.6875 11.6981 6.6875H2.70706C1.42263 6.6875 0.138192 7.86337 0.00974871 9.56185C-0.118695 11.5216 1.0373 13.2201 2.57862 13.2201H11.6981C12.0834 13.2201 12.4688 13.6121 12.5972 14.1347L26.3407 63.652C26.8544 65.6117 28.2673 66.9183 29.9371 66.9183H86.4522C87.9936 66.9183 89.4064 65.6117 89.9202 63.7826L91.4615 58.0339C90.5624 58.1645 89.5349 58.1645 88.6358 58.1645H88.6358H88.6357C87.8651 58.1645 87.2229 58.1645 86.5807 58.0339Z" fill="white"/>
<path d="M86.5807 58.0339L85.81 61.0389H30.9646L22.4874 30.4662H58.1947C58.0662 29.2904 58.0662 28.2451 58.0662 27.0693C58.0662 26.2854 58.0662 25.5014 58.1947 24.7175H21.2029H20.946L17.4781 12.1749C16.7074 8.90859 14.3954 6.6875 11.6981 6.6875H2.70706C1.42263 6.6875 0.138192 7.86337 0.00974871 9.56185C-0.118695 11.5216 1.0373 13.2201 2.57862 13.2201H11.6981C12.0834 13.2201 12.4688 13.6121 12.5972 14.1347L26.3407 63.652C26.8544 65.6117 28.2673 66.9183 29.9371 66.9183H86.4522C87.9936 66.9183 89.4064 65.6117 89.9202 63.7826L91.4615 58.0339C90.5624 58.1645 89.5349 58.1645 88.6358 58.1645H88.6358H88.6357C87.8651 58.1645 87.2229 58.1645 86.5807 58.0339Z" stroke="white"/>
<path d="M40.154 71.3828C35.212 71.3828 31.231 74.8662 31.231 79.1905C31.231 83.5148 35.212 86.9982 40.154 86.9982C45.096 86.9982 49.0771 83.5148 49.0771 79.1905C49.0771 74.8662 45.096 71.3828 40.154 71.3828ZM40.154 81.9532C38.3694 81.9532 36.9966 80.752 36.9966 79.1905C36.9966 77.629 38.3694 76.4278 40.154 76.4278C41.9386 76.4278 43.3114 77.629 43.3114 79.1905C43.3114 80.6319 41.9386 81.9532 40.154 81.9532Z" fill="white"/>
<path d="M40.154 71.3828C35.212 71.3828 31.231 74.8662 31.231 79.1905C31.231 83.5148 35.212 86.9982 40.154 86.9982C45.096 86.9982 49.0771 83.5148 49.0771 79.1905C49.0771 74.8662 45.096 71.3828 40.154 71.3828ZM40.154 81.9532C38.3694 81.9532 36.9966 80.752 36.9966 79.1905C36.9966 77.629 38.3694 76.4278 40.154 76.4278C41.9386 76.4278 43.3114 77.629 43.3114 79.1905C43.3114 80.6319 41.9386 81.9532 40.154 81.9532Z" stroke="white"/>
<path d="M75.8464 71.3828C70.9044 71.3828 66.9233 74.8662 66.9233 79.1905C66.9233 83.5148 70.9044 86.9982 75.8464 86.9982C80.7884 86.9982 84.7695 83.5148 84.7695 79.1905C84.7695 74.8662 80.6511 71.3828 75.8464 71.3828ZM75.8464 81.9532C74.0618 81.9532 72.689 80.752 72.689 79.1905C72.689 77.629 74.0618 76.4278 75.8464 76.4278C77.631 76.4278 79.0038 77.629 79.0038 79.1905C78.8665 80.6319 77.4938 81.9532 75.8464 81.9532Z" fill="white"/>
<path d="M75.8464 71.3828C70.9044 71.3828 66.9233 74.8662 66.9233 79.1905C66.9233 83.5148 70.9044 86.9982 75.8464 86.9982C80.7884 86.9982 84.7695 83.5148 84.7695 79.1905C84.7695 74.8662 80.6511 71.3828 75.8464 71.3828ZM75.8464 81.9532C74.0618 81.9532 72.689 80.752 72.689 79.1905C72.689 77.629 74.0618 76.4278 75.8464 76.4278C77.631 76.4278 79.0038 77.629 79.0038 79.1905C78.8665 80.6319 77.4938 81.9532 75.8464 81.9532Z" stroke="white"/>
<path d="M62.4619 26.7692C62.4619 41.486 74.5144 53.5385 89.2311 53.5385C103.948 53.5385 116 41.486 116 26.7692C116 12.0525 103.948 0 89.2311 0C74.5144 0 62.4619 12.0525 62.4619 26.7692ZM68.4247 26.7692C68.4247 15.3511 77.813 5.96281 89.2311 5.96281C100.649 5.96281 110.038 15.3511 110.038 26.7692C110.038 38.1874 100.649 47.5756 89.2311 47.5756C77.813 47.5756 68.4247 38.3143 68.4247 26.7692Z" fill="white"/>
<path d="M62.4619 26.7692C62.4619 41.486 74.5144 53.5385 89.2311 53.5385C103.948 53.5385 116 41.486 116 26.7692C116 12.0525 103.948 0 89.2311 0C74.5144 0 62.4619 12.0525 62.4619 26.7692ZM68.4247 26.7692C68.4247 15.3511 77.813 5.96281 89.2311 5.96281C100.649 5.96281 110.038 15.3511 110.038 26.7692C110.038 38.1874 100.649 47.5756 89.2311 47.5756C77.813 47.5756 68.4247 38.3143 68.4247 26.7692Z" stroke="white"/>
<path d="M86.2171 24.725V16.2184C86.2171 15.445 86.4911 14.8006 87.176 14.285C87.8608 13.6406 88.4088 13.3828 89.3676 13.3828C90.1895 13.3828 90.8743 13.6406 91.4222 14.285C92.1071 14.8006 92.3811 15.445 92.3811 16.2184V24.9828H101.696C102.654 24.9828 103.202 25.2406 103.887 25.885C104.572 26.5295 104.846 27.045 104.846 27.9473C104.846 28.8495 104.572 29.365 103.887 30.0095C103.202 30.6539 102.654 30.9117 101.696 30.9117H92.5181V39.6761C92.5181 40.5784 92.2441 41.0939 91.5592 41.7384L91.5592 41.7384C90.7374 42.125 90.1895 42.3828 89.2306 42.3828C88.2718 42.3828 87.7239 42.125 87.039 41.4806C86.3541 40.8361 86.0801 40.3206 86.0801 39.4184V30.6539H76.7657C75.9438 30.6539 75.259 30.3961 74.5741 29.7517C73.8892 29.1073 73.6152 28.5917 73.6152 27.6895C73.6152 26.9161 73.8892 26.2717 74.5741 25.6273C75.259 24.9828 75.8069 24.725 76.7657 24.725H86.2171Z" fill="white"/>
<path d="M86.2171 24.725V16.2184C86.2171 15.445 86.4911 14.8006 87.176 14.285C87.8608 13.6406 88.4088 13.3828 89.3676 13.3828C90.1895 13.3828 90.8743 13.6406 91.4222 14.285C92.1071 14.8006 92.3811 15.445 92.3811 16.2184V24.9828H101.696C102.654 24.9828 103.202 25.2406 103.887 25.885C104.572 26.5295 104.846 27.045 104.846 27.9473C104.846 28.8495 104.572 29.365 103.887 30.0095C103.202 30.6539 102.654 30.9117 101.696 30.9117H92.5181V39.6761C92.5181 40.5784 92.2441 41.0939 91.5592 41.7384L91.5592 41.7384C90.7374 42.125 90.1895 42.3828 89.2306 42.3828C88.2718 42.3828 87.7239 42.125 87.039 41.4806C86.3541 40.8361 86.0801 40.3206 86.0801 39.4184V30.6539H76.7657C75.9438 30.6539 75.259 30.3961 74.5741 29.7517C73.8892 29.1073 73.6152 28.5917 73.6152 27.6895C73.6152 26.9161 73.8892 26.2717 74.5741 25.6273C75.259 24.9828 75.8069 24.725 76.7657 24.725H86.2171Z" stroke="white"/>
</svg>
